<?xml version="1.0" encoding="UTF-8"?> <svg xmlns="http://www.w3.org/2000/svg" width="100" height="56" viewBox="0 0 100 56" fill="none"> <rect x="0.5" y="0.5" width="99" height="55" rx="7.5" stroke="white"></rect> <path d="M39.0911 12C36.2769 12 34 14.2577 34 17.045V38.442C34 41.2271 36.2769 43.486 39.0911 43.486H60.6918C63.5039 43.486 65.7817 41.2272 65.7817 38.442V38.2231C65.687 38.184 57.522 34.81 53.3719 32.8329C50.572 36.2465 46.9606 38.3174 43.211 38.3174C36.8705 38.3174 34.7174 32.8199 37.7196 29.2011C38.3742 28.4122 39.4878 27.6585 41.216 27.2366C43.9197 26.5785 48.2224 27.6475 52.2552 28.9659C52.9806 27.642 53.5908 26.184 54.0454 24.6316H41.6177V23.3847H48.0259V21.1487H40.2644V19.901H48.0259V16.7114C48.0259 16.7114 48.0259 16.1741 48.5755 16.1741H51.7081V19.9009H59.381V21.1489H51.7081V23.3847H57.9712C57.3719 25.8172 56.4619 28.0561 55.3196 30.0216C57.2204 30.7028 58.9267 31.3489 60.1983 31.7708C64.4398 33.1769 65.6287 33.3487 65.782 33.3666V17.0451C65.782 14.2578 63.5041 12.0001 60.6921 12.0001H39.0914L39.0911 12ZM42.5764 29.0593C42.3042 29.0625 42.0308 29.0771 41.7554 29.104C40.9614 29.183 39.4708 29.5301 38.6558 30.2443C36.2131 32.3549 37.6751 36.2131 42.6191 36.2131C45.493 36.2131 48.3646 34.3929 50.6204 31.4782C47.7121 30.0723 45.2073 29.0291 42.5764 29.0593Z" fill="white"></path> </svg> 