<?xml version="1.0" encoding="UTF-8"?> <svg xmlns="http://www.w3.org/2000/svg" width="100" height="56" viewBox="0 0 100 56" fill="none"> <rect x="0.5" y="0.5" width="99" height="55" rx="7.5" stroke="white"></rect> <path d="M79 24.6135V32.9259H76.1107V27.0949H73.3286V32.9259H70.4392V24.6129H79V24.6135Z" fill="white"></path> <path fill-rule="evenodd" clip-rule="evenodd" d="M64.5051 33.2231C67.0917 33.2231 69.0124 31.594 69.0124 29.1241C69.0124 26.7337 67.5953 25.1816 65.2269 25.1816C64.1339 25.1816 63.232 25.5768 62.5527 26.2588C62.7149 24.8492 63.8752 23.8201 65.1527 23.8201C65.4476 23.8201 67.6673 23.8153 67.6673 23.8153L68.9225 21.3478C68.9225 21.3478 66.1357 21.4129 64.8402 21.4129C61.8803 21.4659 59.8809 24.2298 59.8809 27.5868C59.8809 31.4976 61.8309 33.2231 64.5051 33.2231ZM64.5209 27.3672C65.4812 27.3672 66.147 28.0155 66.147 29.1239C66.147 30.1215 65.5554 30.9434 64.5209 30.9457C63.5313 30.9457 62.8655 30.1841 62.8655 29.1409C62.8655 28.0322 63.5313 27.3672 64.5209 27.3672Z" fill="white"></path> <path d="M57.5291 30.143C57.5291 30.143 56.8467 30.547 55.8276 30.6235C54.656 30.6592 53.612 29.899 53.612 28.5484C53.612 27.2309 54.5332 26.4758 55.7981 26.4758C56.5737 26.4758 57.5997 27.028 57.5997 27.028C57.5997 27.028 58.3504 25.6128 58.7393 24.905C58.0272 24.3505 57.0787 24.0465 55.9755 24.0465C53.1912 24.0465 51.0346 25.9114 51.0346 28.5317C51.0346 31.1854 53.0615 33.0069 55.9755 32.952C56.7899 32.9208 57.9136 32.627 58.5984 32.1751L57.5291 30.143Z" fill="white"></path> <path d="M22 18.4006L26.0081 25.7602V30.2494L22.0047 37.5945L22 18.4006Z" fill="white"></path> <path d="M37.3893 23.0823L41.145 20.7176L48.8313 20.7102L37.3893 27.9108V23.0823Z" fill="white"></path> <path d="M37.3681 18.3573L37.3893 28.1012L33.3719 25.5653V11L37.3681 18.3573Z" fill="white"></path> <path d="M48.8313 20.7101L41.1447 20.7175L37.3681 18.3573L33.3719 11L48.8313 20.7101Z" fill="white"></path> <path d="M37.3893 37.6353V32.9078L33.3719 30.4202L33.3741 44.9999L37.3893 37.6353Z" fill="white"></path> <path d="M41.1356 35.2921L26.0078 25.7602L22 18.4006L48.815 35.2825L41.1356 35.2921Z" fill="white"></path> <path d="M33.3744 45L37.3891 37.6353L41.1354 35.2921L48.8147 35.2825L33.3744 45Z" fill="white"></path> <path d="M22.0049 37.5946L33.4049 30.4206L29.5723 28.0049L26.0083 30.2495L22.0049 37.5946Z" fill="white"></path> </svg> 