<?xml version="1.0" encoding="UTF-8"?> <svg xmlns="http://www.w3.org/2000/svg" width="100" height="56" viewBox="0 0 100 56" fill="none"> <rect x="0.5" y="0.5" width="99" height="55" rx="7.5" stroke="white"></rect> <path d="M45.1908 32.2418C45.0271 32.3242 44.8429 32.3723 44.6469 32.3723C44.1932 32.3723 43.7994 32.1229 43.5922 31.7537L43.513 31.5802L40.2114 24.3356C40.1758 24.2567 40.1538 24.1677 40.1538 24.0808C40.1538 23.7469 40.4243 23.4762 40.7582 23.4762C40.8937 23.4762 41.0191 23.5213 41.1199 23.5963L45.0158 26.3701C45.3005 26.5563 45.6406 26.6654 46.0062 26.6654C46.2242 26.6654 46.4324 26.6248 46.6263 26.5545L64.9477 18.4001C61.6636 14.5294 56.2551 12 50.1343 12C40.1185 12 32 18.7657 32 27.1126C32 31.6659 34.4426 35.7649 38.2658 38.5354C38.5724 38.7543 38.7735 39.1143 38.7735 39.5202C38.7735 39.6543 38.7447 39.7773 38.7097 39.9051C38.4043 41.0441 37.9156 42.8684 37.8925 42.9538C37.8545 43.0968 37.7952 43.2459 37.7952 43.3957C37.7952 43.7296 38.0656 44 38.4001 44C38.5309 44 38.6382 43.9514 38.7488 43.8876L42.7189 41.5954C43.0178 41.4231 43.3336 41.3164 43.6823 41.3164C43.8673 41.3164 44.0464 41.3448 44.2149 41.3964C46.067 41.929 48.0654 42.2252 50.1343 42.2252C60.1498 42.2252 68.2695 35.4586 68.2695 27.1126C68.2695 24.5844 67.5202 22.2038 66.2036 20.1093L45.323 32.1653L45.1908 32.2418Z" fill="white"></path> </svg> 