<?xml version="1.0" encoding="UTF-8"?> <svg xmlns="http://www.w3.org/2000/svg" width="424" height="424" viewBox="0 0 424 424" fill="none"> <path d="M20 236.504C20 229.304 20 222.004 20 214.804C21 207.304 21.8 199.804 23.2 192.304C37.7 113.604 108.9 54.1043 189.6 53.1043C197.1 53.0043 198.6 54.5043 198.6 61.9043C198.6 114.404 198.6 166.904 198.7 219.504C198.7 221.804 199.5 224.404 200.8 226.304C212.6 243.304 224.7 260.104 236.7 277.004C255.4 303.404 274.1 329.704 292.8 356.104C296.1 360.704 295.8 363.704 291.6 366.604C253.6 392.704 211.7 402.304 166.3 395.604C132.6 390.704 102.9 376.504 77.5 353.704C48.4 327.404 29.9 295.104 22.9 256.404C21.7 249.804 21 243.204 20 236.504Z" fill="#E50473"></path> <path d="M404 237.304C403 244.304 402.3 251.404 401 258.304C392.4 303.604 369.1 339.704 332.1 367.104C327.8 370.304 325 369.604 321.5 364.604C295.9 328.604 270.4 292.604 244.8 256.604C239 248.504 233.2 240.304 227.5 232.204C223.4 226.304 225.3 222.004 232.4 220.904C278.5 213.504 324.6 206.004 370.6 198.604C378.4 197.304 386.1 196.104 393.9 194.804C398.5 194.104 401.2 195.904 401.8 200.404C402.6 205.904 403.2 211.504 403.9 217.004C404 223.804 404 230.504 404 237.304Z" fill="#E50473"></path> <path d="M220.1 115.304C220.1 88.4043 220.1 61.4043 220.1 34.5043C220.1 27.5043 221.8 25.9043 228.7 26.0043C310.6 27.6043 378.7 84.1043 395.4 164.304C397.8 175.604 397.3 176.604 385.8 178.504C351.1 184.204 316.3 189.804 281.6 195.404C263.9 198.304 246.1 201.104 228.4 203.904C222.9 204.804 220.1 202.604 220.1 196.904C220.1 169.604 220.1 142.504 220.1 115.304Z" fill="#E50473"></path> </svg> 