<svg xmlns="http://www.w3.org/2000/svg" viewBox="0 0 512 512">
<path d="M320 96c-53.02 0-96 21.49-96 48s42.98 48 96 48 96-21.49 96-48-42.98-48-96-48zm-160 64c-53.02 0-96 21.49-96 48s42.98 48 96 48c18.8 0 36.26-3.83 51.2-10.42-2.13-5.53-3.2-11.31-3.2-17.18V192c0-26.51 42.98-48 96-48 18.8 0 36.26 3.83 51.2 10.42-2.13-5.53-3.2-11.31-3.2-17.18V96c0-26.51-42.98-48-96-48S64 69.49 64 96v64zm0 128c-53.02 0-96 21.49-96 48s42.98 48 96 48c18.8 0 36.26-3.83 51.2-10.42-2.13-5.53-3.2-11.31-3.2-17.18V320c0-26.51 42.98-48 96-48 18.8 0 36.26 3.83 51.2 10.42-2.13-5.53-3.2-11.31-3.2-17.18V224c0-26.51-42.98-48-96-48s-96 21.49-96 48v64zm160 64c-53.02 0-96 21.49-96 48s42.98 48 96 48 96-21.49 96-48-42.98-48-96-48zm-160 64c-53.02 0-96 21.49-96 48s42.98 48 96 48c18.8 0 36.26-3.83 51.2-10.42-2.13-5.53-3.2-11.31-3.2-17.18V448c0-26.51 42.98-48 96-48 18.8 0 36.26 3.83 51.2 10.42-2.13-5.53-3.2-11.31-3.2-17.18V352c0-26.51-42.98-48-96-48s-96 21.49-96 48v64z"/>
<circle cx="416" cy="368" r="96"/>
<path d="M416 320c-26.51 0-48 21.49-48 48s21.49 48 48 48 48-21.49 48-48-21.49-48-48-48zm0 64c-8.84 0-16-7.16-16-16s7.16-16 16-16 16 7.16 16 16-7.16 16-16 16z"/>
<text x="416" y="385" font-size="48" font-weight="bold" text-anchor="middle" fill="white">P</text>
</svg>
