<?xml version="1.0" encoding="UTF-8"?> <svg xmlns="http://www.w3.org/2000/svg" width="162" height="25" viewBox="0 0 162 25" fill="none"> <path d="M0 16.4729C0 15.2698 0.2 13.9742 0.6 12.586L4.3 0H10.1L6.3 13.1413C6 13.9742 5.9 14.7145 5.9 15.7325C5.9 18.1387 7.5 19.8045 10.5 19.8045C12.2 19.8045 13.7 19.2492 14.8 18.2312C15.9 17.2132 16.8 15.7325 17.4 13.6965L21.4 0H27L22.8 14.5294C21.9 17.6759 20.6 20.0821 18.7 21.7479C16.6 23.6913 13.7 24.7093 9.8 24.7093C3.8 24.7093 0 21.6553 0 16.4729Z" fill="white"></path> <path d="M31 0H41.3C49.6 0 55.3 5.27502 55.3 12.1233C55.3 18.9716 49.6 24.2466 41.3 24.2466H31V0ZM41.3 19.5268C46 19.5268 49.2 16.5654 49.2 12.2158C49.2 7.86626 46 4.90484 41.3 4.90484H36.8V19.6194H41.3V19.5268Z" fill="white"></path> <path d="M59 0H65.2L72.1 10.2724L79.1 0H85.3V24.3391H79.6V8.42152L72.2 18.7865H72L64.7 8.51407V24.3391H59V0Z" fill="white"></path> <path d="M96.2 0H104.5C108.3 0 110.8 0.740354 112.8 2.49869C114.2 3.79431 114.8 5.36756 114.8 7.49608C114.8 13.5115 109.2 17.0281 102 17.0281H97L94.9 24.4317H89.1L96.2 0ZM102.3 12.3084C106.1 12.3084 108.7 10.7351 108.7 7.9588C108.7 7.1259 108.4 6.47809 107.8 5.92283C107 5.18248 105.9 4.8123 104.2 4.8123H100.4L98.3 12.2158H102.3V12.3084Z" fill="white"></path> <path d="M123.5 0H128.8L140 24.3391H134L131.6 18.879H120.6L118.2 24.3391H112.3L123.5 0ZM129.6 14.2518L126.1 6.38555L122.6 14.2518H129.6Z" fill="white"></path> <path d="M145.5 14.7145L135.4 0H142.2L148.5 9.80969L154.8 0H161.4L151.3 14.622V24.3391H145.5V14.7145Z" fill="white"></path> </svg> 