<svg width="212" height="14" viewBox="0 0 212 14" fill="none" xmlns="http://www.w3.org/2000/svg">
<g clip-path="url(#clip0_2201_4)">
<path d="M7.01758 4.2793C6.25586 4.2793 5.60807 4.54622 5.07422 5.08008C4.54688 5.60742 4.2832 6.2487 4.2832 7.00391C4.2832 7.75911 4.54688 8.40039 5.07422 8.92773C5.60807 9.45508 6.24935 9.71875 6.99805 9.71875H24.3613C24.8171 9.71875 25.2044 9.88151 25.5234 10.207C25.8424 10.526 26.002 10.9102 26.002 11.3594C26.002 11.8086 25.8424 12.196 25.5234 12.5215C25.2044 12.8405 24.8171 13 24.3613 13H6.99805C5.91732 13 4.91471 12.7331 3.99023 12.1992C3.07227 11.6589 2.3431 10.9297 1.80273 10.0117C1.26888 9.08724 1.00195 8.08464 1.00195 7.00391C1.00195 6.1901 1.16146 5.41536 1.48047 4.67969C1.79948 3.9375 2.22591 3.29948 2.75977 2.76562C3.30013 2.22526 3.94141 1.79557 4.68359 1.47656C5.42578 1.15755 6.20378 0.998047 7.01758 0.998047H24.3613C24.8171 0.998047 25.2044 1.16081 25.5234 1.48633C25.8424 1.80534 26.002 2.18945 26.002 2.63867C26.002 3.08789 25.8424 3.47526 25.5234 3.80078C25.2044 4.11979 24.8171 4.2793 24.3613 4.2793H7.01758ZM33.9902 0.998047H51.3535C51.8092 0.998047 52.1966 1.16081 52.5156 1.48633C52.8346 1.80534 52.9941 2.18945 52.9941 2.63867C52.9941 3.08789 52.8346 3.47526 52.5156 3.80078C52.1966 4.11979 51.8092 4.2793 51.3535 4.2793H33.9902C33.2415 4.2793 32.6003 4.54622 32.0664 5.08008C31.5391 5.60742 31.2754 6.2487 31.2754 7.00391C31.2754 7.75911 31.5391 8.40039 32.0664 8.92773C32.6003 9.45508 33.2415 9.71875 33.9902 9.71875H46.9883C47.7435 9.71875 48.3848 9.45508 48.9121 8.92773C49.446 8.39388 49.7129 7.7526 49.7129 7.00391C49.7129 6.54818 49.8691 6.16081 50.1816 5.8418C50.5007 5.52279 50.8913 5.36328 51.3535 5.36328C51.8027 5.36328 52.1868 5.52604 52.5059 5.85156C52.8314 6.17057 52.9941 6.55469 52.9941 7.00391C52.9941 8.08464 52.724 9.08724 52.1836 10.0117C51.6497 10.9297 50.9206 11.6589 49.9961 12.1992C49.0716 12.7331 48.069 13 46.9883 13H33.9902C32.9095 13 31.9069 12.7331 30.9824 12.1992C30.0645 11.6589 29.3353 10.9297 28.7949 10.0117C28.2611 9.08724 27.9941 8.08464 27.9941 7.00391C27.9941 5.92318 28.2611 4.92057 28.7949 3.99609C29.3353 3.07161 30.0645 2.34245 30.9824 1.80859C31.9069 1.26823 32.9095 0.998047 33.9902 0.998047ZM67.4473 9.71875C68.4759 9.71875 69.3483 9.36068 70.0645 8.64453L77.2227 1.49609C77.5482 1.16406 77.9323 0.998047 78.375 0.998047C78.8242 0.998047 79.2018 1.16406 79.5078 1.49609C79.8398 1.80208 80.0059 2.18294 80.0059 2.63867C80.0059 3.08789 79.8398 3.47526 79.5078 3.80078L72.3887 10.959C71.7637 11.6035 71.0247 12.1048 70.1719 12.4629C69.319 12.821 68.4108 13 67.4473 13C66.4967 13 65.5951 12.821 64.7422 12.4629C63.8893 12.1048 63.1504 11.6035 62.5254 10.959L55.4062 3.80078C55.0742 3.47526 54.9082 3.08789 54.9082 2.63867C54.9082 2.18294 55.0742 1.80208 55.4062 1.49609C55.7122 1.16406 56.0866 0.998047 56.5293 0.998047C56.972 0.998047 57.3561 1.16406 57.6816 1.49609L64.8398 8.64453C65.556 9.36068 66.4251 9.71875 67.4473 9.71875ZM87.9746 0.998047H103.141C104.189 0.998047 105.087 1.3724 105.836 2.12109C106.585 2.86979 106.959 3.76823 106.959 4.81641C106.959 5.86458 106.585 6.76628 105.836 7.52148C105.087 8.27018 104.189 8.64453 103.141 8.64453H87.9746C86.9264 8.64453 86.0345 8.27669 85.2988 7.54102C85.4225 8.16602 85.7318 8.68685 86.2266 9.10352C86.7279 9.51367 87.3105 9.71875 87.9746 9.71875H105.318C105.774 9.71875 106.161 9.88151 106.48 10.207C106.799 10.526 106.959 10.9102 106.959 11.3594C106.959 11.8086 106.799 12.196 106.48 12.5215C106.161 12.8405 105.774 13 105.318 13H87.9746C86.8874 13 85.8815 12.7331 84.957 12.1992C84.0326 11.6589 83.3001 10.9297 82.7598 10.0117C82.2259 9.08724 81.959 8.08464 81.959 7.00391C81.959 5.95573 82.2259 4.97266 82.7598 4.05469C83.2936 3.13021 84.0228 2.39128 84.9473 1.83789C85.8783 1.27799 86.8874 0.998047 87.9746 0.998047ZM87.9551 4.2793H87.8965C87.7663 4.29883 87.6556 4.35742 87.5645 4.45508C87.4798 4.55273 87.4375 4.67318 87.4375 4.81641C87.4375 4.96615 87.4896 5.09635 87.5938 5.20703C87.6979 5.3112 87.8249 5.36328 87.9746 5.36328H103.141C103.29 5.36328 103.417 5.3112 103.521 5.20703C103.626 5.09635 103.678 4.96615 103.678 4.81641C103.678 4.66667 103.626 4.53971 103.521 4.43555C103.417 4.33138 103.29 4.2793 103.141 4.2793H87.9551ZM133.951 7.00391C133.951 7.45312 133.788 7.84049 133.463 8.16602C133.144 8.48503 132.76 8.64453 132.311 8.64453C131.848 8.64453 131.458 8.48503 131.139 8.16602C130.826 7.84701 130.67 7.45964 130.67 7.00391C130.67 6.2487 130.403 5.60742 129.869 5.08008C129.342 4.54622 128.701 4.2793 127.945 4.2793H119.312C118.036 4.2793 116.855 4.59831 115.768 5.23633C114.68 5.86784 113.818 6.72721 113.18 7.81445C112.548 8.90169 112.232 10.0833 112.232 11.3594C112.232 11.8086 112.07 12.196 111.744 12.5215C111.425 12.8405 111.041 13 110.592 13C110.13 13 109.739 12.8405 109.42 12.5215C109.107 12.2025 108.951 11.8151 108.951 11.3594V2.63867C108.951 2.18294 109.107 1.79557 109.42 1.47656C109.739 1.15755 110.13 0.998047 110.592 0.998047C111.041 0.998047 111.425 1.16081 111.744 1.48633C112.07 1.80534 112.232 2.18945 112.232 2.63867V3.80078C113.17 2.91536 114.247 2.22852 115.465 1.74023C116.682 1.24544 117.965 0.998047 119.312 0.998047H127.945C128.753 0.998047 129.527 1.15755 130.27 1.47656C131.012 1.79557 131.65 2.22526 132.184 2.76562C132.724 3.29948 133.154 3.9375 133.473 4.67969C133.792 5.42188 133.951 6.19661 133.951 7.00391ZM166.49 4.25977C165.494 4.25977 164.628 4.6276 163.893 5.36328L156.725 12.502C156.406 12.834 156.021 13 155.572 13C155.13 13 154.755 12.834 154.449 12.502C154.117 12.196 153.951 11.8151 153.951 11.3594C153.951 10.9036 154.117 10.5098 154.449 10.1777L161.568 3.03906C162.193 2.39453 162.929 1.89648 163.775 1.54492C164.628 1.19336 165.533 1.01758 166.49 1.01758C167.454 1.01758 168.362 1.19336 169.215 1.54492C170.068 1.89648 170.807 2.39453 171.432 3.03906L178.551 10.1777C178.883 10.5098 179.049 10.9036 179.049 11.3594C179.049 11.8151 178.883 12.196 178.551 12.502C178.245 12.834 177.867 13 177.418 13C176.975 13 176.591 12.834 176.266 12.502L169.107 5.36328C168.372 4.6276 167.499 4.25977 166.49 4.25977ZM165.338 10.0312C165.025 9.71224 164.869 9.32812 164.869 8.87891C164.869 8.42969 165.025 8.04557 165.338 7.72656C165.657 7.40104 166.041 7.23828 166.49 7.23828C166.952 7.23828 167.34 7.39779 167.652 7.7168C167.971 8.03581 168.131 8.42318 168.131 8.87891C168.131 9.33464 167.971 9.71875 167.652 10.0312C167.34 10.3438 166.952 10.5 166.49 10.5C166.041 10.5 165.657 10.3438 165.338 10.0312ZM181.061 11.3594V7.00391C181.061 6.54818 181.217 6.16081 181.529 5.8418C181.848 5.52279 182.239 5.36328 182.701 5.36328C183.15 5.36328 183.535 5.52604 183.854 5.85156C184.179 6.17057 184.342 6.55469 184.342 7.00391V11.3594C184.342 11.8086 184.179 12.196 183.854 12.5215C183.535 12.8405 183.15 13 182.701 13C182.239 13 181.848 12.8405 181.529 12.5215C181.217 12.2025 181.061 11.8151 181.061 11.3594ZM181.539 3.80078C181.22 3.47526 181.061 3.08789 181.061 2.63867C181.061 2.18945 181.22 1.80534 181.539 1.48633C181.865 1.16081 182.252 0.998047 182.701 0.998047C183.157 0.998047 183.544 1.16081 183.863 1.48633C184.182 1.80534 184.342 2.18945 184.342 2.63867C184.342 3.08789 184.182 3.47526 183.863 3.80078C183.544 4.11979 183.157 4.2793 182.701 4.2793C182.252 4.2793 181.865 4.11979 181.539 3.80078ZM211.334 7.00391C211.334 7.45312 211.171 7.84049 210.846 8.16602C210.527 8.48503 210.143 8.64453 209.693 8.64453C209.231 8.64453 208.84 8.48503 208.521 8.16602C208.209 7.84701 208.053 7.45964 208.053 7.00391C208.053 6.2487 207.786 5.60742 207.252 5.08008C206.725 4.54622 206.083 4.2793 205.328 4.2793H196.695C195.419 4.2793 194.238 4.59831 193.15 5.23633C192.063 5.86784 191.201 6.72721 190.562 7.81445C189.931 8.90169 189.615 10.0833 189.615 11.3594C189.615 11.8086 189.452 12.196 189.127 12.5215C188.808 12.8405 188.424 13 187.975 13C187.512 13 187.122 12.8405 186.803 12.5215C186.49 12.2025 186.334 11.8151 186.334 11.3594V2.63867C186.334 2.18294 186.49 1.79557 186.803 1.47656C187.122 1.15755 187.512 0.998047 187.975 0.998047C188.424 0.998047 188.808 1.16081 189.127 1.48633C189.452 1.80534 189.615 2.18945 189.615 2.63867V3.80078C190.553 2.91536 191.63 2.22852 192.848 1.74023C194.065 1.24544 195.348 0.998047 196.695 0.998047H205.328C206.135 0.998047 206.91 1.15755 207.652 1.47656C208.395 1.79557 209.033 2.22526 209.566 2.76562C210.107 3.29948 210.536 3.9375 210.855 4.67969C211.174 5.42188 211.334 6.19661 211.334 7.00391Z" fill="white"/>
</g>
<defs>
<clipPath id="clip0_2201_4">
<rect width="212" height="14" fill="white"/>
</clipPath>
</defs>
</svg>
