<?xml version="1.0" encoding="UTF-8"?> <svg xmlns="http://www.w3.org/2000/svg" width="424" height="424" viewBox="0 0 424 424" fill="none"> <path d="M372.087 27C373.249 27.5084 374.411 28.0894 375.645 28.5251C386.684 32.592 397.215 45.3012 396.997 59.1723C396.851 70.2837 393.148 78.8533 385.449 86.4787C285.81 185.973 186.316 285.54 86.7486 385.107C72.4417 399.414 52.5429 400.503 38.3813 387.939C24.2923 375.375 23.2029 353.516 35.9121 339.645C36.7109 338.773 37.5824 337.902 38.4539 337.03C136.496 238.988 234.465 141.019 332.434 42.9772C339.043 36.3684 345.507 29.8323 354.73 27C360.467 27 366.277 27 372.087 27Z" fill="#02BFDB"></path> <path d="M121.027 27C123.424 27.6536 125.82 28.3072 128.217 28.9608C164.892 38.8376 190.092 72.9708 188.131 110.227C186.098 148.645 158.501 179.873 120.809 186.264C68.2296 195.124 21.3147 150.751 27.5604 97.8806C31.6999 62.3677 57.4813 34.5529 92.7037 27.6536C93.2847 27.5084 93.7931 27.2179 94.3015 27C103.162 27 112.094 27 121.027 27ZM130.759 106.959C130.831 94.1768 120.373 83.6464 107.664 83.5738C94.9551 83.5012 84.352 94.0316 84.2794 106.741C84.2068 119.45 94.6646 129.98 107.446 130.053C120.301 130.198 130.759 119.813 130.759 106.959Z" fill="#02BFDB"></path> <path d="M396.633 316.115C399.756 351.991 367.657 396.509 316.82 396.654C272.374 396.799 235.99 360.27 236.135 315.897C236.281 271.596 272.592 235.212 316.82 235.502C368.383 235.793 399.829 280.747 396.633 316.115ZM293.581 316.187C293.653 329.042 304.184 339.427 316.893 339.354C329.602 339.282 340.132 328.606 340.06 315.969C339.987 303.188 329.384 292.73 316.675 292.875C303.821 292.948 293.508 303.406 293.581 316.187Z" fill="#02BFDB"></path> </svg> 