<?xml version="1.0" encoding="UTF-8"?> <svg xmlns="http://www.w3.org/2000/svg" width="100" height="56" viewBox="0 0 100 56" fill="none"> <rect x="0.5" y="0.5" width="99" height="55" rx="7.5" stroke="white"></rect> <path d="M43.8218 27.8428C43.8218 22.4629 46.3509 17.688 50.2318 14.6029C47.3757 12.3572 43.7727 11 39.8428 11C30.5329 11 23 18.5329 23 27.8428C23 37.1526 30.5329 44.6855 39.8428 44.6855C43.7727 44.6855 47.3757 43.3283 50.2318 41.0826C46.3455 38.0411 43.8218 33.2226 43.8218 27.8428Z" fill="white"></path> <path d="M77.4636 27.8428C77.4636 37.1526 69.9307 44.6855 60.6209 44.6855C56.6909 44.6855 53.088 43.3283 50.2318 41.0826C54.1618 37.992 56.6418 33.2226 56.6418 27.8428C56.6418 22.4629 54.1127 17.688 50.2318 14.6029C53.0825 12.3572 56.6854 11 60.6154 11C69.9307 11 77.4636 18.582 77.4636 27.8428Z" fill="white"></path> </svg> 