<?xml version="1.0" encoding="UTF-8"?> <svg xmlns="http://www.w3.org/2000/svg" width="100" height="56" viewBox="0 0 100 56" fill="none"> <rect x="0.5" y="0.5" width="99" height="55" rx="7.5" stroke="white"></rect> <path fill-rule="evenodd" clip-rule="evenodd" d="M23.1032 19.003C23.6929 18.9996 25.4452 18.8452 26.1875 21.2947C26.6875 22.9447 27.484 25.6475 28.5769 29.403H29.022C30.1941 25.4437 30.9993 22.7409 31.4375 21.2947C32.1875 18.8197 34.0625 19.0031 34.8125 19.0031L40.5989 19.0031V36.603H34.7012V26.2311H34.3058L31.0181 36.603H26.5808L23.2932 26.2234H22.8977V36.603H17V19.0031L23.1032 19.003ZM49.0679 19.0031V29.3827H49.5384L53.5375 20.8476C54.3138 19.1491 55.9684 19.0031 55.9684 19.0031H61.6756V36.6031H55.6547V26.2234H55.1842L51.2635 34.7585C50.4872 36.4493 48.7542 36.6031 48.7542 36.6031H43.047V19.0031H49.0679ZM82.4863 27.3667C81.6465 29.6937 79.009 31.3603 76.089 31.3603H69.775V36.6031H64.0495V27.3667H82.4863Z" fill="white"></path> <path fill-rule="evenodd" clip-rule="evenodd" d="M76.3652 19.0032H63.7492C64.0495 22.9215 67.5006 26.2759 71.0731 26.2759H82.8842C83.5658 23.0193 81.2194 19.0032 76.3652 19.0032Z" fill="white"></path> </svg> 