<?xml version="1.0" encoding="UTF-8"?> <svg xmlns="http://www.w3.org/2000/svg" width="100" height="56" viewBox="0 0 100 56" fill="none"> <rect x="0.5" y="0.5" width="99" height="55" rx="7.5" stroke="white"></rect> <path d="M42.3149 26.7835C42.3109 25.2335 41.0334 23.9601 39.4671 23.9601C37.8926 23.956 36.607 25.2253 36.6111 26.7876C36.6111 28.3417 37.8804 29.6029 39.4508 29.6151C41.013 29.6232 42.3149 28.3376 42.3149 26.7835Z" fill="white"></path> <path d="M60.6224 24.0822C59.0521 24.0741 57.7665 25.3393 57.7624 26.9056C57.7583 28.4638 59.0358 29.7372 60.6102 29.7413C62.1725 29.7453 63.45 28.4801 63.4581 26.926C63.4662 25.3597 62.201 24.0903 60.6224 24.0822Z" fill="white"></path> <path d="M50.4272 24.0048C48.9219 23.956 47.5793 25.2172 47.5427 26.7184C47.502 28.3213 48.7307 29.6191 50.3214 29.6557C51.9121 29.6923 53.2059 28.4474 53.2425 26.8526C53.2791 25.327 52.022 24.0536 50.4272 24.0048Z" fill="white"></path> <path d="M50 8C38.9544 8 30 16.9544 30 28C30 39.0456 38.9544 48 50 48C61.0456 48 70 39.0456 70 28C70 16.9544 61.0456 8 50 8ZM44.2026 33.6794C44.2026 33.8055 44.1701 33.8625 44.0317 33.8584C41.9203 33.7852 39.9186 33.3336 38.1937 32.048C37.6444 31.6371 37.1644 31.1326 36.6558 30.6688C36.607 30.6241 36.5663 30.5753 36.4809 30.4858C36.4809 31.3157 36.4809 32.0846 36.4809 32.8576C36.4809 33.1302 36.489 33.3987 36.4727 33.6713C36.4687 33.7242 36.3914 33.8218 36.3466 33.8218C35.8137 33.834 35.2807 33.8299 34.7274 33.8299C34.7193 33.7567 34.7071 33.6998 34.7071 33.6387C34.7071 31.2954 34.6827 28.952 34.7234 26.6086C34.764 24.2083 36.6558 22.2474 39.048 22.0561C41.5826 21.8527 43.8405 23.6998 44.1212 26.2059C44.3857 28.537 42.9577 30.6688 40.6998 31.3238C40.6509 31.3401 40.598 31.3564 40.5411 31.4093C40.8259 31.5028 41.1066 31.6086 41.3914 31.6941C42.2498 31.9504 43.1245 32.1253 44.0236 32.1375C44.1579 32.1375 44.2026 32.1863 44.1985 32.3165C44.1985 32.7722 44.1985 33.2278 44.2026 33.6794ZM51.0496 31.4988C49.7884 31.6859 48.633 31.3889 47.5915 30.6485C47.5427 30.6159 47.4939 30.5834 47.4044 30.5264C47.4044 31.6615 47.4044 32.7559 47.4044 33.8747C46.8308 33.8747 46.2897 33.8788 45.7486 33.8706C45.712 33.8706 45.6591 33.8096 45.6387 33.7648C45.6184 33.7201 45.6306 33.6591 45.6306 33.6021C45.6306 31.393 45.6306 29.188 45.6306 26.9788C45.6306 25.2091 46.3344 23.7974 47.8275 22.8291C50.6713 20.9821 54.5321 22.7478 55.0203 26.1041C55.4068 28.712 53.6452 31.1123 51.0496 31.4988ZM61.4972 31.5354C60.1465 31.7958 58.9056 31.5069 57.7868 30.7014C57.7543 30.677 57.7217 30.6526 57.6892 30.6322C57.681 30.6241 57.6648 30.6282 57.6241 30.6159C57.6241 31.6534 57.62 32.6745 57.6282 33.6957C57.6322 33.8991 57.5793 33.9642 57.3718 33.9561C56.9325 33.9398 56.4931 33.9439 56.0537 33.952C55.8991 33.9561 55.8584 33.9032 55.8584 33.7526C55.8625 31.4296 55.8421 29.1066 55.8706 26.7876C55.8991 24.3507 57.8194 22.345 60.2482 22.1782C62.7258 22.0033 64.9552 23.8015 65.2604 26.214C65.5777 28.7567 63.9544 31.0635 61.4972 31.5354Z" fill="white"></path> </svg> 