<?xml version="1.0" encoding="UTF-8"?> <svg xmlns="http://www.w3.org/2000/svg" width="100" height="56" viewBox="0 0 100 56" fill="none"> <rect x="0.5" y="0.5" width="99" height="55" rx="7.5" stroke="white"></rect> <path d="M82.8219 19.4701L86.9368 27.9966L78.2865 36.5272L82.8219 19.4701Z" fill="white"></path> <path d="M79.9725 19.4701L84.0813 27.9966L75.4367 36.5272L79.9725 19.4701Z" fill="white"></path> <path d="M14 33.4248L18.1027 18H24.662C26.7119 18 28.0813 18.3386 28.778 19.0365C29.4696 19.7288 29.6029 20.8587 29.1859 22.447C28.9338 23.3826 28.5505 24.1679 28.024 24.7884C27.5017 25.41 26.8129 25.9015 25.9647 26.263C26.6843 26.4435 27.1421 26.802 27.3473 27.3395C27.5515 27.877 27.5279 28.6609 27.28 29.6884L26.781 31.8429L26.7796 31.9012C26.6356 32.5045 26.6782 32.8275 26.9128 32.8537L26.7617 33.4248H22.3244C22.3394 33.0619 22.367 32.7374 22.3964 32.4649C22.4286 32.1861 22.4684 31.97 22.5078 31.8216L22.9215 30.2812C23.13 29.4802 23.1429 28.9214 22.9494 28.5996C22.7542 28.2691 22.3172 28.1065 21.6274 28.1065H19.7626L18.3406 33.4248H14ZM20.6853 24.6307H22.6826C23.3825 24.6307 23.899 24.5264 24.2174 24.3107C24.5373 24.0931 24.7748 23.7257 24.9141 23.1942C25.0585 22.6537 25.023 22.2769 24.816 22.0627C24.6093 21.8452 24.1146 21.7394 23.337 21.7394H21.4543L20.6853 24.6307Z" fill="white"></path> <path d="M41.3637 22.0425L38.3391 33.4248H34.6637L35.1154 31.7573C34.4685 32.4204 33.8066 32.9239 33.1392 33.2457C32.4773 33.5731 31.7788 33.7343 31.0435 33.7343C30.4356 33.7343 29.9137 33.6191 29.4936 33.3907C29.0684 33.1631 28.7517 32.817 28.5386 32.3606C28.3495 31.961 28.2671 31.4676 28.2993 30.8781C28.3334 30.298 28.5297 29.3194 28.8936 27.9491L30.461 22.0425H34.4814L32.9172 27.9214C32.6886 28.7819 32.6342 29.3867 32.7456 29.716C32.8616 30.0483 33.1715 30.2199 33.6744 30.2199C34.1809 30.2199 34.6068 30.0285 34.9585 29.6379C35.3153 29.2506 35.5907 28.6731 35.7978 27.9046L37.3491 22.0425H41.3637Z" fill="white"></path> <path d="M39.9051 33.4248L44.0035 18H49.6415C50.8855 18 51.8483 18.0766 52.5349 18.2448C53.2202 18.4059 53.7575 18.6676 54.1568 19.0365C54.6572 19.5191 54.9638 20.1164 55.0899 20.8329C55.2085 21.5495 55.1383 22.3842 54.8786 23.3643C54.4194 25.0885 53.6145 26.4099 52.4676 27.3332C51.3171 28.2445 49.8936 28.7023 48.1947 28.7023H45.5563L44.303 33.4248H39.9051ZM46.5553 24.9353H47.973C48.8896 24.9353 49.534 24.8172 49.9115 24.5892C50.2769 24.3582 50.5366 23.9477 50.6949 23.3643C50.8532 22.7729 50.8124 22.3595 50.5731 22.1285C50.3428 21.8986 49.7543 21.7824 48.8126 21.7824H47.3977L46.5553 24.9353Z" fill="white"></path> <path d="M59.6081 33.4249L59.649 32.3439C59.0006 32.8504 58.3441 33.2332 57.6839 33.4724C57.0266 33.7161 56.3267 33.8398 55.577 33.8398C54.4383 33.8398 53.6442 33.5169 53.185 32.8919C52.7315 32.2658 52.657 31.3669 52.9665 30.2201C53.2627 29.0882 53.7896 28.255 54.5497 27.7224C55.3055 27.1834 56.5678 26.7976 58.3387 26.5509C58.5633 26.5128 58.8642 26.4822 59.241 26.4347C60.5502 26.2766 61.2852 25.9125 61.4435 25.3186C61.5259 24.9934 61.4757 24.7534 61.2823 24.6061C61.0957 24.4532 60.7468 24.3781 60.2432 24.3781C59.8252 24.3781 59.4888 24.4686 59.213 24.6566C58.9376 24.8465 58.732 25.1238 58.5927 25.514H54.6729C55.0268 24.2327 55.75 23.2646 56.8357 22.6172C57.9175 21.9586 59.3438 21.6416 61.1104 21.6416C61.941 21.6416 62.685 21.7227 63.3426 21.8988C64.0014 22.0673 64.4828 22.3077 64.7951 22.5985C65.1795 22.9614 65.4069 23.3752 65.4717 23.8327C65.5466 24.2891 65.4646 24.9433 65.2353 25.7993L63.5493 32.1451C63.4952 32.3529 63.4848 32.5383 63.5142 32.7069C63.5493 32.8676 63.6167 33.0052 63.7356 33.1035L63.645 33.4249H59.6081ZM60.5853 28.3425C60.1583 28.5216 59.6035 28.6931 58.9139 28.8815C57.8311 29.1847 57.2218 29.5891 57.09 30.0896C56.9987 30.4114 57.0356 30.6593 57.1864 30.8477C57.335 31.0267 57.5933 31.1172 57.9572 31.1172C58.6245 31.1172 59.1604 30.9411 59.5598 30.5935C59.9602 30.2414 60.2597 29.6885 60.4692 28.926C60.5058 28.7638 60.538 28.6472 60.5588 28.5601L60.5853 28.3425Z" fill="white"></path> <path d="M63.6756 37.9099L64.5678 34.5409H65.7183C66.1027 34.5409 66.405 34.4617 66.6192 34.3174C66.8366 34.1675 66.9846 33.9149 67.0698 33.5747C67.1124 33.4248 67.1386 33.2671 67.1565 33.088C67.1679 32.8981 67.1679 32.6974 67.1565 32.4649L66.5425 22.0425H70.612L70.5489 28.9487L74.1015 22.0425H77.8858L71.6052 33.3699C70.8924 34.6359 70.3745 35.5057 70.0457 35.9804C69.7211 36.4491 69.4131 36.8136 69.114 37.0603C68.7264 37.4016 68.2937 37.6434 67.8267 37.7843C67.3585 37.9282 66.6457 38 65.6875 38C65.4117 38 65.0944 37.9944 64.7512 37.9757C64.4106 37.9619 64.047 37.9406 63.6756 37.9099Z" fill="white"></path> </svg> 