<?xml version="1.0" encoding="UTF-8"?> <svg xmlns="http://www.w3.org/2000/svg" width="100" height="56" viewBox="0 0 100 56" fill="none"> <rect x="0.5" y="0.5" width="99" height="55" rx="7.5" stroke="white"></rect> <path d="M44.5999 39.052H39.2534L42.5975 18.3749H47.9437L44.5999 39.052Z" fill="white"></path> <path d="M63.9813 18.8803C62.9267 18.4619 61.2541 18 59.1859 18C53.9061 18 50.1882 20.8155 50.1654 24.8407C50.1215 27.8106 52.8273 29.4601 54.8511 30.4503C56.9195 31.4622 57.6227 32.1226 57.6227 33.0246C57.6016 34.4098 55.9512 35.0483 54.4119 35.0483C52.2774 35.0483 51.1337 34.7191 49.3956 33.9484L48.6915 33.6181L47.9434 38.2596C49.1973 38.8309 51.5076 39.3379 53.9061 39.3601C59.516 39.3601 63.1682 36.5882 63.2115 32.2986C63.2328 29.9448 61.8041 28.1412 58.7237 26.6674C56.8538 25.7213 55.7086 25.0834 55.7086 24.1154C55.7305 23.2354 56.6772 22.334 58.788 22.334C60.5261 22.2899 61.8032 22.7076 62.7706 23.1257L63.2542 23.3453L63.9813 18.8803Z" fill="white"></path> <path d="M71.0872 31.7268C71.5275 30.539 73.2218 25.9415 73.2218 25.9415C73.1996 25.9857 73.6612 24.7317 73.9252 23.9619L74.2989 25.7436C74.2989 25.7436 75.3113 30.693 75.5312 31.7268C74.6956 31.7268 72.1433 31.7268 71.0872 31.7268ZM77.6868 18.3749H73.5513C72.276 18.3749 71.3071 18.7485 70.7569 20.0905L62.8154 39.0517H68.4253C68.4253 39.0517 69.3488 36.4997 69.5474 35.95C70.1628 35.95 75.62 35.95 76.4118 35.95C76.5653 36.676 77.0497 39.0517 77.0497 39.0517H82L77.6868 18.3749Z" fill="white"></path> <path d="M34.7878 18.3749L29.5519 32.4747L28.9798 29.6151C28.0117 26.3155 24.9758 22.7305 21.5879 20.948L26.3839 39.0301H32.0376L40.4413 18.3749H34.7878Z" fill="white"></path> <path d="M24.6899 18.3749H16.088L16 18.7927C22.71 20.5085 27.154 24.6446 28.9798 29.616L27.1098 20.113C26.802 18.7924 25.8559 18.4184 24.6899 18.3749Z" fill="white"></path> </svg> 